<svg xmlns="http://www.w3.org/2000/svg" viewBox="0 0 64 64"><rect width="64" height="64" rx="14" fill="#03050f"/><circle cx="32" cy="32" r="26" fill="#11182b" stroke="#00e5ff" stroke-width="3"/><rect x="30.5" y="8.5" width="3" height="6" rx="1" fill="#00e5ff" opacity="0.85" transform="rotate(0 32 32)"/><rect x="30.5" y="8.5" width="3" height="6" rx="1" fill="#00e5ff" opacity="0.85" transform="rotate(30 32 32)"/><rect x="30.5" y="8.5" width="3" height="6" rx="1" fill="#00e5ff" opacity="0.85" transform="rotate(60 32 32)"/><rect x="30.5" y="8.5" width="3" height="6" rx="1" fill="#00e5ff" opacity="0.85" transform="rotate(90 32 32)"/><rect x="30.5" y="8.5" width="3" height="6" rx="1" fill="#00e5ff" opacity="0.85" transform="rotate(120 32 32)"/><rect x="30.5" y="8.5" width="3" height="6" rx="1" fill="#00e5ff" opacity="0.85" transform="rotate(150 32 32)"/><rect x="30.5" y="8.5" width="3" height="6" rx="1" fill="#00e5ff" opacity="0.85" transform="rotate(180 32 32)"/><rect x="30.5" y="8.5" width="3" height="6" rx="1" fill="#00e5ff" opacity="0.85" transform="rotate(210 32 32)"/><rect x="30.5" y="8.5" width="3" height="6" rx="1" fill="#00e5ff" opacity="0.85" transform="rotate(240 32 32)"/><rect x="30.5" y="8.5" width="3" height="6" rx="1" fill="#00e5ff" opacity="0.85" transform="rotate(270 32 32)"/><rect x="30.5" y="8.5" width="3" height="6" rx="1" fill="#00e5ff" opacity="0.85" transform="rotate(300 32 32)"/><rect x="30.5" y="8.5" width="3" height="6" rx="1" fill="#00e5ff" opacity="0.85" transform="rotate(330 32 32)"/><circle cx="32" cy="32" r="13" fill="#1dff8e"/><circle cx="32" cy="32" r="9.5" fill="#0d1426"/><circle cx="32" cy="32" r="3" fill="#1dff8e"/><circle cx="32.00" cy="25.80" r="1.6" fill="#1dff8e"/><circle cx="37.90" cy="30.08" r="1.6" fill="#1dff8e"/><circle cx="35.64" cy="37.02" r="1.6" fill="#1dff8e"/><circle cx="28.36" cy="37.02" r="1.6" fill="#1dff8e"/><circle cx="26.10" cy="30.08" r="1.6" fill="#1dff8e"/></svg>